# xmcd
#
# Track frame offsets: 
#        150
#        16972
#        49612
#        85361
#        116619
#        144924
#
# Disc length: 2236 seconds
#
# Revision: 2
# Processed by: cddbd v1.5.1PL0 Copyright (c) Steve Scherf et al.
# Submitted via: ExactAudioCopy v0.90b4
#
DISCID=4408ba06
DTITLE=The Disco Boys featuring Manfred Mann's Earth Band - For You
DYEAR=2005
DGENRE=Dance
TTITLE0=For You (Original Radio Edit)
TTITLE1=For You (Original Version)
TTITLE2=For You (Michi Lange Club Mix)
TTITLE3=For You (Dub Mix)
TTITLE4=For You (Dub Radio Edit)
TTITLE5=For You (Video)
EXTD=
EXTT0=
EXTT1=
EXTT2=
EXTT3=
EXTT4=
EXTT5=
PLAYORDER=
